<svg width="94" height="106" viewBox="0 0 94 106" fill="none" xmlns="http://www.w3.org/2000/svg">
<path d="M9.13255 95.0038L0.706299 0.5H93.2938L84.8563 94.9888L46.9438 105.5L9.13255 95.0038Z" fill="#E44F26"/>
<path d="M47 97.4675L77.6376 88.9738L84.845 8.22875H47V97.4675Z" fill="#F1662A"/>
<path d="M47 43.2762H31.6625L30.605 31.4075H47V19.8162H17.9375L21.0613 54.8675H47V43.2762ZM47 73.3775L46.9475 73.3925L34.04 69.9088L33.215 60.665H21.5788L23.2025 78.86L46.9475 85.4525L47 85.4375V73.3775Z" fill="#EBEBEB"/>
<path d="M46.9588 43.2762V54.8675H61.2313L59.8888 69.9013L46.9588 73.3888V85.4487L70.7225 78.86L70.895 76.9025L73.6175 46.3888L73.9025 43.2762H46.9588ZM46.9588 19.8162V31.4075H74.9563L75.995 19.8162H46.9588Z" fill="white"/>
</svg>
